<?xml version="1.0" standalone="no"?>
<!DOCTYPE svg PUBLIC "-//W3C//DTD SVG 20010904//EN"
 "http://www.w3.org/TR/2001/REC-SVG-20010904/DTD/svg10.dtd">
<svg version="1.0" xmlns="http://www.w3.org/2000/svg"
 width="267.000000pt" height="267.000000pt" viewBox="0 0 267.000000 267.000000"
 preserveAspectRatio="xMidYMid meet">
<metadata>
Created by potrace 1.14, written by Peter Selinger 2001-2017
</metadata>
<g transform="translate(0.000000,267.000000) scale(0.100000,-0.100000)"
fill="#000000" stroke="none">
<path d="M1200 2604 c-14 -2 -56 -9 -95 -15 -103 -16 -247 -65 -355 -119 -241
-122 -438 -316 -559 -550 -150 -292 -188 -607 -110 -915 11 -44 23 -83 26 -88
3 -5 14 10 24 34 11 23 51 75 90 116 82 87 127 154 186 280 50 108 73 188 109
372 22 121 29 140 56 168 60 62 211 102 332 88 103 -11 111 -23 77 -117 -75
-204 -92 -320 -98 -638 -2 -146 0 -285 4 -309 l8 -45 47 58 c121 154 350 607
467 926 24 63 50 123 58 132 24 27 105 49 169 46 48 -3 60 -7 76 -29 19 -25
19 -30 4 -160 -22 -190 -40 -615 -34 -805 4 -135 8 -167 24 -199 11 -22 25
-40 30 -41 13 -4 76 81 112 151 42 84 190 459 252 640 33 98 60 199 76 295 34
195 58 240 126 240 16 0 28 3 28 8 -1 4 -24 33 -53 64 -180 196 -417 331 -682
389 -86 19 -335 34 -395 23z"/>
<path d="M2420 1988 c0 -85 -157 -612 -257 -863 -147 -373 -265 -587 -393
-716 -76 -77 -116 -99 -181 -99 -71 0 -170 61 -216 133 -49 77 -120 329 -135
479 -3 24 -11 15 -62 -70 -107 -176 -263 -407 -321 -475 -51 -61 -114 -107
-146 -107 -35 0 -101 45 -123 83 -29 51 -38 95 -71 347 -14 107 -28 214 -31
237 l-5 42 -72 -79 c-40 -43 -85 -88 -100 -101 -34 -26 -105 -36 -136 -20 -20
11 -20 8 10 -51 146 -289 426 -528 739 -632 387 -128 793 -71 1140 159 96 64
271 239 335 335 152 228 225 466 225 730 0 205 -49 410 -139 587 -55 107 -61
115 -61 81z"/>
</g>
</svg>
